<svg width="970" height="390" viewBox="0 0 970 390" fill="none" xmlns="http://www.w3.org/2000/svg">
<path d="M317.04 165.218C317.074 153.99 316.135 142.781 314.233 131.715H161.881V194.639H249.328C247.536 204.587 243.748 214.07 238.193 222.516C232.638 230.963 225.43 238.198 217.003 243.787V284.007H268.808C284.718 268.685 297.233 250.194 305.541 229.731C313.85 209.268 317.767 187.29 317.04 165.218Z" fill="#4285F4"/>
<path d="M161.881 323.118C201.21 324.191 239.462 310.198 268.808 284.004L217.003 243.784C204.47 251.864 190.258 256.978 175.448 258.737C160.639 260.495 145.623 258.852 131.545 253.931C117.467 249.011 104.699 240.944 94.2119 230.344C83.7252 219.744 75.7971 206.892 71.0316 192.765H17.2705V234.261C30.76 261.02 51.4287 283.502 76.9664 299.194C102.504 314.886 131.904 323.17 161.881 323.118Z" fill="#34A853"/>
<path d="M71.0299 192.515C64.2239 172.441 64.2239 150.685 71.0299 130.612V89.1167H17.2688C5.9159 111.52 0 136.28 0 161.393C0 186.507 5.9159 211.267 17.2688 233.67L71.0299 192.515Z" fill="#FBBC05"/>
<path d="M161.881 63.7803C184.958 63.4101 207.257 72.1126 223.979 88.0143L269.999 42.5225C240.838 14.8734 202.072 -0.370683 161.881 0.00684861C131.878 -0.0205694 102.459 8.30092 76.9185 24.0395C51.3782 39.7781 30.7247 62.3126 17.2705 89.1197L70.6914 130.615C76.9778 111.334 89.1604 94.5121 105.521 82.5211C121.882 70.5301 141.595 63.975 161.881 63.7803Z" fill="#EA4335"/>
<path d="M452.889 193.958V306.114H417.076V25.5105H512.094C523.463 25.2763 534.763 27.3228 545.326 31.529C555.89 35.7353 565.503 42.0158 573.596 49.9995C581.711 57.7266 588.171 67.0206 592.585 77.3179C596.999 87.6152 599.275 98.7013 599.275 109.904C599.275 121.107 596.999 132.193 592.585 142.49C588.171 152.788 581.711 162.082 573.596 169.809C565.474 177.731 555.849 183.949 545.287 188.096C534.724 192.244 523.439 194.236 512.094 193.958H452.889ZM452.889 60.2883V159.18H512.86C519.456 159.369 526.017 158.165 532.116 155.644C538.214 153.124 543.711 149.345 548.247 144.554C552.877 140.035 556.539 134.621 559.01 128.642C561.482 122.664 562.711 116.245 562.623 109.777C562.637 103.432 561.371 97.1505 558.901 91.3065C556.431 85.4625 552.807 80.1764 548.247 75.764C543.776 70.8616 538.301 66.9796 532.195 64.3824C526.088 61.7852 519.494 60.5338 512.86 60.7135L452.889 60.2883Z" fill="#5F6368"/>
<path d="M688.691 105.691C711.642 104.509 734.145 112.353 751.384 127.544C759.234 135.257 765.344 144.557 769.306 154.823C773.267 165.089 774.987 176.082 774.352 187.066V306.11H740.326V278.815H738.794C732.673 289.104 723.944 297.596 713.489 303.434C703.034 309.271 691.223 312.248 679.249 312.062C659.895 312.684 641.032 305.902 626.509 293.1C619.709 287.232 614.286 279.938 610.625 271.738C606.964 263.537 605.155 254.631 605.327 245.653C605.004 236.473 606.862 227.348 610.752 219.026C614.641 210.704 620.449 203.423 627.7 197.78C644.943 185.248 665.951 178.979 687.245 180.008C705.508 179.315 723.634 183.42 739.815 191.913V183.41C739.871 177.28 738.574 171.214 736.016 165.644C733.457 160.073 729.701 155.136 725.014 151.183C715.595 142.498 703.205 137.751 690.392 137.918C680.948 137.695 671.607 139.929 663.286 144.401C654.965 148.873 647.949 155.429 642.926 163.427L611.367 143.19C628.89 118.247 654.665 105.748 688.691 105.691ZM642.416 246.588C642.365 251.196 643.411 255.75 645.467 259.875C647.522 263.999 650.529 267.577 654.24 270.312C662.084 276.691 671.946 280.067 682.056 279.835C689.568 279.805 696.999 278.287 703.92 275.368C710.841 272.449 717.114 268.187 722.377 262.829C727.971 257.785 732.437 251.619 735.486 244.732C738.535 237.846 740.097 230.395 740.07 222.864C726.502 213.172 710.016 208.43 693.37 209.429C680.39 208.936 667.604 212.698 656.962 220.143C652.536 223.002 648.89 226.915 646.351 231.531C643.812 236.147 642.46 241.321 642.416 246.588Z" fill="#5F6368"/>
<path d="M970 110.54L850.909 389.698H813.48L857.884 291.997L779.284 110.54H818.159L874.982 249.737H875.833L931.04 110.54H970Z" fill="#5F6368"/>
</svg>
