<svg width="314" height="314" viewBox="0 0 314 314" fill="none" xmlns="http://www.w3.org/2000/svg">
<path d="M314 160.568C314 149.436 312.981 138.731 311.087 128.455H160.204V189.257H246.423C242.637 208.81 231.277 225.367 214.237 236.499V276.035H266.23C296.523 248.631 314 208.382 314 160.568V160.568Z" fill="#4285F4"/>
<path d="M160.205 314C203.46 314 239.724 300.013 266.231 276.034L214.237 236.499C199.965 245.919 181.76 251.628 160.205 251.628C118.552 251.628 83.1612 224.082 70.4906 186.973H17.1863V227.507C43.5471 278.746 97.5796 314 160.205 314Z" fill="#34A853"/>
<path d="M70.4898 186.83C67.2857 177.41 65.3924 167.419 65.3924 157C65.3924 146.581 67.2857 136.59 70.4898 127.17V86.6356H17.1855C6.26252 107.759 0 131.595 0 157C0 182.406 6.26252 206.241 17.1855 227.365L58.693 195.679L70.4898 186.83Z" fill="#FBBC05"/>
<path d="M160.205 62.5146C183.799 62.5146 204.771 70.5073 221.519 85.9219L267.396 40.9628C239.579 15.5573 203.46 0 160.205 0C97.5796 0 43.5471 35.2537 17.1863 86.6355L70.4906 127.17C83.1612 90.061 118.552 62.5146 160.205 62.5146Z" fill="#EA4335"/>
</svg>
