<svg width="314" height="320" viewBox="0 0 314 320" fill="none" xmlns="http://www.w3.org/2000/svg">
<path d="M313.6 163.636C313.6 152.291 312.582 141.382 310.691 130.909H160V192.873H246.109C242.327 212.8 230.982 229.673 213.964 241.018V281.309H265.891C296.146 253.382 313.6 212.364 313.6 163.636V163.636Z" fill="#4285F4"/>
<path d="M160.001 320C203.201 320 239.419 305.746 265.892 281.309L213.965 241.018C199.71 250.618 181.528 256.436 160.001 256.436C118.401 256.436 83.0553 228.364 70.4007 190.545H17.1643V231.855C43.4916 284.073 97.4553 320 160.001 320Z" fill="#34A853"/>
<path d="M70.4001 190.4C67.2001 180.8 65.3091 170.618 65.3091 160C65.3091 149.382 67.2001 139.2 70.4001 129.6V88.291H17.1637C6.25455 109.818 0 134.109 0 160C0 185.891 6.25455 210.182 17.1637 231.709L58.6182 199.418L70.4001 190.4Z" fill="#FBBC05"/>
<path d="M160.001 63.7092C183.564 63.7092 204.51 71.8546 221.237 87.5637L267.055 41.7455C239.274 15.8546 203.201 0 160.001 0C97.4553 0 43.4916 35.9273 17.1643 88.291L70.4007 129.6C83.0553 91.7819 118.401 63.7092 160.001 63.7092Z" fill="#EA4335"/>
</svg>
